<?xml version="1.0" encoding="UTF-8" standalone="no"?>
<!-- Created with Inkscape (http://www.inkscape.org/) -->

<svg
   xmlns:dc="http://purl.org/dc/elements/1.1/"
   xmlns:cc="http://creativecommons.org/ns#"
   xmlns:rdf="http://www.w3.org/1999/02/22-rdf-syntax-ns#"
   xmlns:svg="http://www.w3.org/2000/svg"
   xmlns="http://www.w3.org/2000/svg"
   xmlns:sodipodi="http://sodipodi.sourceforge.net/DTD/sodipodi-0.dtd"
   xmlns:inkscape="http://www.inkscape.org/namespaces/inkscape"
   width="602.36218"
   height="602.36218"
   id="svg2"
   version="1.1"
   inkscape:version="0.48.4 r9939"
   sodipodi:docname="x-BIMU Housing Bracket.svg">
  <defs
     id="defs4">
    <clipPath
       id="clipPath4535"
       clipPathUnits="userSpaceOnUse">
      <path
         id="path4537"
         d="m 0,1717.797 1250.08,0 L 1250.08,0 0,0 0,1717.797 z"
         inkscape:connector-curvature="0" />
    </clipPath>
    <clipPath
       id="clipPath2999"
       clipPathUnits="userSpaceOnUse">
      <path
         id="path3001"
         d="m 0,1717.797 1250.08,0 L 1250.08,0 0,0 0,1717.797 z"
         inkscape:connector-curvature="0" />
    </clipPath>
    <clipPath
       id="clipPath10098"
       clipPathUnits="userSpaceOnUse">
      <path
         id="path10100"
         d="m 0,850.39 1133.86,0 L 1133.86,0 0,0 0,850.39 z"
         inkscape:connector-curvature="0" />
    </clipPath>
    <clipPath
       id="clipPath9326"
       clipPathUnits="userSpaceOnUse">
      <path
         id="path9328"
         d="m 0,850.39 1133.86,0 L 1133.86,0 0,0 0,850.39 z"
         inkscape:connector-curvature="0" />
    </clipPath>
    <clipPath
       id="clipPath11783"
       clipPathUnits="userSpaceOnUse">
      <path
         id="path11785"
         d="m 0,850.39 1133.86,0 L 1133.86,0 0,0 0,850.39 z"
         inkscape:connector-curvature="0" />
    </clipPath>
    <clipPath
       id="clipPath11011"
       clipPathUnits="userSpaceOnUse">
      <path
         id="path11013"
         d="m 0,850.39 1133.86,0 L 1133.86,0 0,0 0,850.39 z"
         inkscape:connector-curvature="0" />
    </clipPath>
  </defs>
  <sodipodi:namedview
     id="base"
     pagecolor="#ffffff"
     bordercolor="#666666"
     borderopacity="1.0"
     inkscape:pageopacity="0.0"
     inkscape:pageshadow="2"
     inkscape:zoom="1.5455818"
     inkscape:cx="301.18109"
     inkscape:cy="301.18109"
     inkscape:document-units="px"
     inkscape:current-layer="layer1"
     showgrid="false"
     inkscape:window-width="1920"
     inkscape:window-height="1148"
     inkscape:window-x="1072"
     inkscape:window-y="328"
     inkscape:window-maximized="1"
     units="cm" />
  <metadata
     id="metadata7">
    <rdf:RDF>
      <cc:Work
         rdf:about="">
        <dc:format>image/svg+xml</dc:format>
        <dc:type
           rdf:resource="http://purl.org/dc/dcmitype/StillImage" />
        <dc:title></dc:title>
      </cc:Work>
    </rdf:RDF>
  </metadata>
  <g
     inkscape:label="Layer 1"
     inkscape:groupmode="layer"
     id="layer1"
     transform="translate(0,-449.99874)">
    <g
       id="g4539"
       transform="matrix(1.25,0,0,-1.25,57.246502,609.33647)">
      <path
         inkscape:connector-curvature="0"
         d="m 0,0 c -7.795,0 -14.174,6.379 -14.174,14.174 l 0,56.408 c 0,7.797 6.379,14.174 14.174,14.174 l 79.371,0 c 7.795,0 14.172,-6.377 14.172,-14.174 l 0,-56.408 C 93.543,6.379 87.166,0 79.371,0 L 0,0 z"
         style="fill:none;stroke:#ff0000;stroke-width:0.1;stroke-linecap:butt;stroke-linejoin:miter;stroke-miterlimit:10;stroke-opacity:1;stroke-dasharray:none"
         id="path4541" />
    </g>
    <g
       id="g4543"
       transform="matrix(1.25,0,0,-1.25,447.01081,609.33647)">
      <path
         inkscape:connector-curvature="0"
         d="m 0,0 c -7.795,0 -14.174,6.379 -14.174,14.174 l 0,56.408 c 0,7.797 6.379,14.174 14.174,14.174 l 79.371,0 c 7.795,0 14.172,-6.377 14.172,-14.174 l 0,-56.408 C 93.543,6.379 87.166,0 79.371,0 L 0,0 z"
         style="fill:none;stroke:#ff0000;stroke-width:0.1;stroke-linecap:butt;stroke-linejoin:miter;stroke-miterlimit:10;stroke-opacity:1;stroke-dasharray:none"
         id="path4545" />
    </g>
    <g
       id="g4547"
       transform="matrix(1.25,0,0,-1.25,447.01081,999.4562)">
      <path
         inkscape:connector-curvature="0"
         d="m 0,0 c -7.795,0 -14.174,6.379 -14.174,14.174 l 0,56.408 c 0,7.797 6.379,14.174 14.174,14.174 l 79.371,0 c 7.795,0 14.172,-6.377 14.172,-14.174 l 0,-56.408 C 93.543,6.379 87.166,0 79.371,0 L 0,0 z"
         style="fill:none;stroke:#ff0000;stroke-width:0.1;stroke-linecap:butt;stroke-linejoin:miter;stroke-miterlimit:10;stroke-opacity:1;stroke-dasharray:none"
         id="path4549" />
    </g>
    <g
       id="g4551"
       transform="matrix(1.25,0,0,-1.25,57.246502,999.4562)">
      <path
         inkscape:connector-curvature="0"
         d="m 0,0 c -7.795,0 -14.174,6.379 -14.174,14.174 l 0,56.408 c 0,7.797 6.379,14.174 14.174,14.174 l 79.371,0 c 7.795,0 14.172,-6.377 14.172,-14.174 l 0,-56.408 C 93.543,6.379 87.166,0 79.371,0 L 0,0 z"
         style="fill:none;stroke:#ff0000;stroke-width:0.1;stroke-linecap:butt;stroke-linejoin:miter;stroke-miterlimit:10;stroke-opacity:1;stroke-dasharray:none"
         id="path4553" />
    </g>
    <g
       id="g4555"
       transform="matrix(1.25,0,0,-1.25,57.246502,804.39497)">
      <path
         inkscape:connector-curvature="0"
         d="m 0,0 c -7.795,0 -14.174,6.379 -14.174,14.174 l 0,56.406 c 0,7.797 6.379,14.174 14.174,14.174 l 79.371,0 c 7.795,0 14.172,-6.377 14.172,-14.174 l 0,-56.406 C 93.543,6.379 87.166,0 79.371,0 L 0,0 z"
         style="fill:none;stroke:#ff0000;stroke-width:0.1;stroke-linecap:butt;stroke-linejoin:miter;stroke-miterlimit:10;stroke-opacity:1;stroke-dasharray:none"
         id="path4557" />
    </g>
    <g
       id="g4559"
       transform="matrix(1.25,0,0,-1.25,252.12921,609.33647)">
      <path
         inkscape:connector-curvature="0"
         d="m 0,0 c -7.795,0 -14.174,6.379 -14.174,14.174 l 0,56.408 c 0,7.797 6.379,14.174 14.174,14.174 l 79.371,0 c 7.795,0 14.172,-6.377 14.172,-14.174 l 0,-56.408 C 93.543,6.379 87.166,0 79.371,0 L 0,0 z"
         style="fill:none;stroke:#ff0000;stroke-width:0.1;stroke-linecap:butt;stroke-linejoin:miter;stroke-miterlimit:10;stroke-opacity:1;stroke-dasharray:none"
         id="path4561" />
    </g>
    <g
       id="g4563"
       transform="matrix(1.25,0,0,-1.25,447.01081,804.39497)">
      <path
         inkscape:connector-curvature="0"
         d="m 0,0 c -7.795,0 -14.174,6.379 -14.174,14.174 l 0,56.406 c 0,7.797 6.379,14.174 14.174,14.174 l 79.371,0 c 7.795,0 14.172,-6.377 14.172,-14.174 l 0,-56.406 C 93.543,6.379 87.166,0 79.371,0 L 0,0 z"
         style="fill:none;stroke:#ff0000;stroke-width:0.1;stroke-linecap:butt;stroke-linejoin:miter;stroke-miterlimit:10;stroke-opacity:1;stroke-dasharray:none"
         id="path4565" />
    </g>
    <g
       id="g4567"
       transform="matrix(1.25,0,0,-1.25,252.12921,804.39497)">
      <path
         inkscape:connector-curvature="0"
         d="m 0,0 c -7.795,0 -14.174,6.379 -14.174,14.174 l 0,56.406 c 0,7.797 6.379,14.174 14.174,14.174 l 79.371,0 c 7.795,0 14.172,-6.377 14.172,-14.174 l 0,-56.406 C 93.543,6.379 87.166,0 79.371,0 L 0,0 z"
         style="fill:none;stroke:#ff0000;stroke-width:0.1;stroke-linecap:butt;stroke-linejoin:miter;stroke-miterlimit:10;stroke-opacity:1;stroke-dasharray:none"
         id="path4569" />
    </g>
    <g
       id="g4571"
       transform="matrix(1.25,0,0,-1.25,252.12921,999.4537)">
      <path
         inkscape:connector-curvature="0"
         d="m 0,0 c -7.795,0 -14.174,6.379 -14.174,14.174 l 0,56.406 c 0,7.797 6.379,14.174 14.174,14.174 l 79.371,0 c 7.795,0 14.172,-6.377 14.172,-14.174 l 0,-56.406 C 93.543,6.379 87.166,0 79.371,0 L 0,0 z"
         style="fill:none;stroke:#ff0000;stroke-width:0.1;stroke-linecap:butt;stroke-linejoin:miter;stroke-miterlimit:10;stroke-opacity:1;stroke-dasharray:none"
         id="path4573" />
    </g>
    <g
       id="g4575"
       transform="matrix(1.25,0,0,-1.25,160.0027,1015.4009)">
      <path
         inkscape:connector-curvature="0"
         d="m 0,0 c 0,-2.338 -2.041,-4.252 -4.535,-4.252 l -75.97,0 c -2.494,0 -4.535,1.914 -4.535,4.252 0,2.34 2.041,4.252 4.535,4.252 l 75.97,0 C -2.041,4.252 0,2.34 0,0 z"
         style="fill:none;stroke:#ff0000;stroke-width:0.1;stroke-linecap:butt;stroke-linejoin:miter;stroke-miterlimit:10;stroke-opacity:1;stroke-dasharray:none"
         id="path4577" />
    </g>
    <g
       id="g4579"
       transform="matrix(1.25,0,0,-1.25,160.0027,877.20997)">
      <path
         inkscape:connector-curvature="0"
         d="m 0,0 c 0,-2.34 -2.041,-4.252 -4.535,-4.252 l -75.97,0 c -2.494,0 -4.535,1.912 -4.535,4.252 0,2.338 2.041,4.252 4.535,4.252 l 75.97,0 C -2.041,4.252 0,2.338 0,0 z"
         style="fill:none;stroke:#ff0000;stroke-width:0.1;stroke-linecap:butt;stroke-linejoin:miter;stroke-miterlimit:10;stroke-opacity:1;stroke-dasharray:none"
         id="path4581" />
    </g>
    <g
       id="g4583"
       transform="matrix(1.25,0,0,-1.25,160.0027,820.51817)">
      <path
         inkscape:connector-curvature="0"
         d="m 0,0 c 0,-2.34 -2.041,-4.252 -4.535,-4.252 l -75.97,0 c -2.494,0 -4.535,1.912 -4.535,4.252 0,2.338 2.041,4.252 4.535,4.252 l 75.97,0 C -2.041,4.252 0,2.338 0,0 z"
         style="fill:none;stroke:#ff0000;stroke-width:0.1;stroke-linecap:butt;stroke-linejoin:miter;stroke-miterlimit:10;stroke-opacity:1;stroke-dasharray:none"
         id="path4585" />
    </g>
    <g
       id="g4587"
       transform="matrix(1.25,0,0,-1.25,160.0027,682.32967)">
      <path
         inkscape:connector-curvature="0"
         d="m 0,0 c 0,-2.338 -2.041,-4.252 -4.535,-4.252 l -75.97,0 c -2.494,0 -4.535,1.914 -4.535,4.252 0,2.34 2.041,4.252 4.535,4.252 l 75.97,0 C -2.041,4.252 0,2.34 0,0 z"
         style="fill:none;stroke:#ff0000;stroke-width:0.1;stroke-linecap:butt;stroke-linejoin:miter;stroke-miterlimit:10;stroke-opacity:1;stroke-dasharray:none"
         id="path4589" />
    </g>
    <g
       id="g4591"
       transform="matrix(1.25,0,0,-1.25,160.0027,625.63527)">
      <path
         inkscape:connector-curvature="0"
         d="m 0,0 c 0,-2.34 -2.041,-4.252 -4.535,-4.252 l -75.97,0 c -2.494,0 -4.535,1.912 -4.535,4.252 0,2.338 2.041,4.252 4.535,4.252 l 75.97,0 C -2.041,4.252 0,2.338 0,0 z"
         style="fill:none;stroke:#ff0000;stroke-width:0.1;stroke-linecap:butt;stroke-linejoin:miter;stroke-miterlimit:10;stroke-opacity:1;stroke-dasharray:none"
         id="path4593" />
    </g>
    <g
       id="g4595"
       transform="matrix(1.25,0,0,-1.25,160.0027,487.44678)">
      <path
         inkscape:connector-curvature="0"
         d="m 0,0 c 0,-2.339 -2.041,-4.252 -4.535,-4.252 l -75.97,0 c -2.494,0 -4.535,1.913 -4.535,4.252 0,2.339 2.041,4.252 4.535,4.252 l 75.97,0 C -2.041,4.252 0,2.339 0,0 z"
         style="fill:none;stroke:#ff0000;stroke-width:0.1;stroke-linecap:butt;stroke-linejoin:miter;stroke-miterlimit:10;stroke-opacity:1;stroke-dasharray:none"
         id="path4597" />
    </g>
    <g
       id="g4599"
       transform="matrix(1.25,0,0,-1.25,354.88431,1015.4009)">
      <path
         inkscape:connector-curvature="0"
         d="m 0,0 c 0,-2.338 -2.041,-4.252 -4.535,-4.252 l -75.97,0 c -2.494,0 -4.535,1.914 -4.535,4.252 0,2.34 2.041,4.252 4.535,4.252 l 75.97,0 C -2.041,4.252 0,2.34 0,0 z"
         style="fill:none;stroke:#ff0000;stroke-width:0.1;stroke-linecap:butt;stroke-linejoin:miter;stroke-miterlimit:10;stroke-opacity:1;stroke-dasharray:none"
         id="path4601" />
    </g>
    <g
       id="g4603"
       transform="matrix(1.25,0,0,-1.25,354.88431,877.20997)">
      <path
         inkscape:connector-curvature="0"
         d="m 0,0 c 0,-2.34 -2.041,-4.252 -4.535,-4.252 l -75.97,0 c -2.494,0 -4.535,1.912 -4.535,4.252 0,2.338 2.041,4.252 4.535,4.252 l 75.97,0 C -2.041,4.252 0,2.338 0,0 z"
         style="fill:none;stroke:#ff0000;stroke-width:0.1;stroke-linecap:butt;stroke-linejoin:miter;stroke-miterlimit:10;stroke-opacity:1;stroke-dasharray:none"
         id="path4605" />
    </g>
    <g
       id="g4607"
       transform="matrix(1.25,0,0,-1.25,354.88431,820.51817)">
      <path
         inkscape:connector-curvature="0"
         d="m 0,0 c 0,-2.34 -2.041,-4.252 -4.535,-4.252 l -75.97,0 c -2.494,0 -4.535,1.912 -4.535,4.252 0,2.338 2.041,4.252 4.535,4.252 l 75.97,0 C -2.041,4.252 0,2.338 0,0 z"
         style="fill:none;stroke:#ff0000;stroke-width:0.1;stroke-linecap:butt;stroke-linejoin:miter;stroke-miterlimit:10;stroke-opacity:1;stroke-dasharray:none"
         id="path4609" />
    </g>
    <g
       id="g4611"
       transform="matrix(1.25,0,0,-1.25,354.88431,682.32967)">
      <path
         inkscape:connector-curvature="0"
         d="m 0,0 c 0,-2.338 -2.041,-4.252 -4.535,-4.252 l -75.97,0 c -2.494,0 -4.535,1.914 -4.535,4.252 0,2.34 2.041,4.252 4.535,4.252 l 75.97,0 C -2.041,4.252 0,2.34 0,0 z"
         style="fill:none;stroke:#ff0000;stroke-width:0.1;stroke-linecap:butt;stroke-linejoin:miter;stroke-miterlimit:10;stroke-opacity:1;stroke-dasharray:none"
         id="path4613" />
    </g>
    <g
       id="g4615"
       transform="matrix(1.25,0,0,-1.25,354.88431,625.63527)">
      <path
         inkscape:connector-curvature="0"
         d="m 0,0 c 0,-2.34 -2.041,-4.252 -4.535,-4.252 l -75.97,0 c -2.494,0 -4.535,1.912 -4.535,4.252 0,2.338 2.041,4.252 4.535,4.252 l 75.97,0 C -2.041,4.252 0,2.338 0,0 z"
         style="fill:none;stroke:#ff0000;stroke-width:0.1;stroke-linecap:butt;stroke-linejoin:miter;stroke-miterlimit:10;stroke-opacity:1;stroke-dasharray:none"
         id="path4617" />
    </g>
    <g
       id="g4619"
       transform="matrix(1.25,0,0,-1.25,354.88431,487.44678)">
      <path
         inkscape:connector-curvature="0"
         d="m 0,0 c 0,-2.339 -2.041,-4.252 -4.535,-4.252 l -75.97,0 c -2.494,0 -4.535,1.913 -4.535,4.252 0,2.339 2.041,4.252 4.535,4.252 l 75.97,0 C -2.041,4.252 0,2.339 0,0 z"
         style="fill:none;stroke:#ff0000;stroke-width:0.1;stroke-linecap:butt;stroke-linejoin:miter;stroke-miterlimit:10;stroke-opacity:1;stroke-dasharray:none"
         id="path4621" />
    </g>
    <g
       id="g4623"
       transform="matrix(1.25,0,0,-1.25,549.76601,1015.4009)">
      <path
         inkscape:connector-curvature="0"
         d="m 0,0 c 0,-2.338 -2.041,-4.252 -4.535,-4.252 l -75.97,0 c -2.494,0 -4.535,1.914 -4.535,4.252 0,2.34 2.041,4.252 4.535,4.252 l 75.97,0 C -2.041,4.252 0,2.34 0,0 z"
         style="fill:none;stroke:#ff0000;stroke-width:0.1;stroke-linecap:butt;stroke-linejoin:miter;stroke-miterlimit:10;stroke-opacity:1;stroke-dasharray:none"
         id="path4625" />
    </g>
    <g
       id="g4627"
       transform="matrix(1.25,0,0,-1.25,549.76601,877.20997)">
      <path
         inkscape:connector-curvature="0"
         d="m 0,0 c 0,-2.34 -2.041,-4.252 -4.535,-4.252 l -75.97,0 c -2.494,0 -4.535,1.912 -4.535,4.252 0,2.338 2.041,4.252 4.535,4.252 l 75.97,0 C -2.041,4.252 0,2.338 0,0 z"
         style="fill:none;stroke:#ff0000;stroke-width:0.1;stroke-linecap:butt;stroke-linejoin:miter;stroke-miterlimit:10;stroke-opacity:1;stroke-dasharray:none"
         id="path4629" />
    </g>
    <g
       id="g4631"
       transform="matrix(1.25,0,0,-1.25,549.76601,820.51817)">
      <path
         inkscape:connector-curvature="0"
         d="m 0,0 c 0,-2.34 -2.041,-4.252 -4.535,-4.252 l -75.97,0 c -2.494,0 -4.535,1.912 -4.535,4.252 0,2.338 2.041,4.252 4.535,4.252 l 75.97,0 C -2.041,4.252 0,2.338 0,0 z"
         style="fill:none;stroke:#ff0000;stroke-width:0.1;stroke-linecap:butt;stroke-linejoin:miter;stroke-miterlimit:10;stroke-opacity:1;stroke-dasharray:none"
         id="path4633" />
    </g>
    <g
       id="g4635"
       transform="matrix(1.25,0,0,-1.25,549.76601,682.32967)">
      <path
         inkscape:connector-curvature="0"
         d="m 0,0 c 0,-2.338 -2.041,-4.252 -4.535,-4.252 l -75.97,0 c -2.494,0 -4.535,1.914 -4.535,4.252 0,2.34 2.041,4.252 4.535,4.252 l 75.97,0 C -2.041,4.252 0,2.34 0,0 z"
         style="fill:none;stroke:#ff0000;stroke-width:0.1;stroke-linecap:butt;stroke-linejoin:miter;stroke-miterlimit:10;stroke-opacity:1;stroke-dasharray:none"
         id="path4637" />
    </g>
    <g
       id="g4639"
       transform="matrix(1.25,0,0,-1.25,549.76601,625.63527)">
      <path
         inkscape:connector-curvature="0"
         d="m 0,0 c 0,-2.34 -2.041,-4.252 -4.535,-4.252 l -75.97,0 c -2.494,0 -4.535,1.912 -4.535,4.252 0,2.338 2.041,4.252 4.535,4.252 l 75.97,0 C -2.041,4.252 0,2.338 0,0 z"
         style="fill:none;stroke:#ff0000;stroke-width:0.1;stroke-linecap:butt;stroke-linejoin:miter;stroke-miterlimit:10;stroke-opacity:1;stroke-dasharray:none"
         id="path4641" />
    </g>
    <g
       id="g4643"
       transform="matrix(1.25,0,0,-1.25,549.76601,487.44678)">
      <path
         inkscape:connector-curvature="0"
         d="m 0,0 c 0,-2.339 -2.041,-4.252 -4.535,-4.252 l -75.97,0 c -2.494,0 -4.535,1.913 -4.535,4.252 0,2.339 2.041,4.252 4.535,4.252 l 75.97,0 C -2.041,4.252 0,2.339 0,0 z"
         style="fill:none;stroke:#ff0000;stroke-width:0.1;stroke-linecap:butt;stroke-linejoin:miter;stroke-miterlimit:10;stroke-opacity:1;stroke-dasharray:none"
         id="path4645" />
    </g>
    <g
       id="g4647"
       transform="matrix(1.25,0,0,-1.25,201.1038,503.74688)">
      <path
         inkscape:connector-curvature="0"
         d="m 0,0 c 0,-2.505 -2.031,-4.535 -4.535,-4.535 -2.506,0 -4.535,2.03 -4.535,4.535 0,2.505 2.029,4.535 4.535,4.535 C -2.031,4.535 0,2.505 0,0 z"
         style="fill:none;stroke:#ff0000;stroke-width:0.1;stroke-linecap:butt;stroke-linejoin:miter;stroke-miterlimit:10;stroke-opacity:1;stroke-dasharray:none"
         id="path4649" />
    </g>
    <g
       id="g4651"
       transform="matrix(1.25,0,0,-1.25,201.1038,574.61347)">
      <path
         inkscape:connector-curvature="0"
         d="m 0,0 c 0,-2.505 -2.031,-4.535 -4.535,-4.535 -2.506,0 -4.535,2.03 -4.535,4.535 0,2.505 2.029,4.536 4.535,4.536 C -2.031,4.536 0,2.505 0,0 z"
         style="fill:none;stroke:#ff0000;stroke-width:0.1;stroke-linecap:butt;stroke-linejoin:miter;stroke-miterlimit:10;stroke-opacity:1;stroke-dasharray:none"
         id="path4653" />
    </g>
    <g
       id="g4655"
       transform="matrix(1.25,0,0,-1.25,413.70151,503.74688)">
      <path
         inkscape:connector-curvature="0"
         d="m 0,0 c 0,-2.505 -2.029,-4.535 -4.535,-4.535 -2.504,0 -4.535,2.03 -4.535,4.535 0,2.505 2.031,4.535 4.535,4.535 C -2.029,4.535 0,2.505 0,0 z"
         style="fill:none;stroke:#ff0000;stroke-width:0.1;stroke-linecap:butt;stroke-linejoin:miter;stroke-miterlimit:10;stroke-opacity:1;stroke-dasharray:none"
         id="path4657" />
    </g>
    <g
       id="g4659"
       transform="matrix(1.25,0,0,-1.25,413.70151,574.61347)">
      <path
         inkscape:connector-curvature="0"
         d="m 0,0 c 0,-2.505 -2.031,-4.535 -4.535,-4.535 -2.504,0 -4.535,2.03 -4.535,4.535 0,2.505 2.031,4.536 4.535,4.536 C -2.031,4.536 0,2.505 0,0 z"
         style="fill:none;stroke:#ff0000;stroke-width:0.1;stroke-linecap:butt;stroke-linejoin:miter;stroke-miterlimit:10;stroke-opacity:1;stroke-dasharray:none"
         id="path4661" />
    </g>
    <g
       id="g4663"
       transform="matrix(1.25,0,0,-1.25,59.370502,645.47897)">
      <path
         inkscape:connector-curvature="0"
         d="m 0,0 c 0,-2.505 -2.029,-4.535 -4.535,-4.535 -2.504,0 -4.535,2.03 -4.535,4.535 0,2.505 2.031,4.535 4.535,4.535 C -2.029,4.535 0,2.505 0,0 z"
         style="fill:none;stroke:#ff0000;stroke-width:0.1;stroke-linecap:butt;stroke-linejoin:miter;stroke-miterlimit:10;stroke-opacity:1;stroke-dasharray:none"
         id="path4665" />
    </g>
    <g
       id="g4667"
       transform="matrix(1.25,0,0,-1.25,130.2371,645.47897)">
      <path
         inkscape:connector-curvature="0"
         d="m 0,0 c 0,-2.505 -2.029,-4.535 -4.535,-4.535 -2.504,0 -4.535,2.03 -4.535,4.535 0,2.505 2.031,4.535 4.535,4.535 C -2.029,4.535 0,2.505 0,0 z"
         style="fill:none;stroke:#ff0000;stroke-width:0.1;stroke-linecap:butt;stroke-linejoin:miter;stroke-miterlimit:10;stroke-opacity:1;stroke-dasharray:none"
         id="path4669" />
    </g>
    <g
       id="g4671"
       transform="matrix(1.25,0,0,-1.25,201.1038,645.47897)">
      <path
         inkscape:connector-curvature="0"
         d="m 0,0 c 0,-2.505 -2.031,-4.535 -4.535,-4.535 -2.506,0 -4.535,2.03 -4.535,4.535 0,2.505 2.029,4.535 4.535,4.535 C -2.031,4.535 0,2.505 0,0 z"
         style="fill:none;stroke:#ff0000;stroke-width:0.1;stroke-linecap:butt;stroke-linejoin:miter;stroke-miterlimit:10;stroke-opacity:1;stroke-dasharray:none"
         id="path4673" />
    </g>
    <g
       id="g4675"
       transform="matrix(1.25,0,0,-1.25,271.97061,645.47897)">
      <path
         inkscape:connector-curvature="0"
         d="m 0,0 c 0,-2.505 -2.031,-4.535 -4.535,-4.535 -2.506,0 -4.535,2.03 -4.535,4.535 0,2.505 2.029,4.535 4.535,4.535 C -2.031,4.535 0,2.505 0,0 z"
         style="fill:none;stroke:#ff0000;stroke-width:0.1;stroke-linecap:butt;stroke-linejoin:miter;stroke-miterlimit:10;stroke-opacity:1;stroke-dasharray:none"
         id="path4677" />
    </g>
    <g
       id="g4679"
       transform="matrix(1.25,0,0,-1.25,201.1038,716.34577)">
      <path
         inkscape:connector-curvature="0"
         d="m 0,0 c 0,-2.506 -2.031,-4.535 -4.535,-4.535 -2.506,0 -4.535,2.029 -4.535,4.535 0,2.504 2.029,4.535 4.535,4.535 C -2.031,4.535 0,2.504 0,0 z"
         style="fill:none;stroke:#ff0000;stroke-width:0.1;stroke-linecap:butt;stroke-linejoin:miter;stroke-miterlimit:10;stroke-opacity:1;stroke-dasharray:none"
         id="path4681" />
    </g>
    <g
       id="g4683"
       transform="matrix(1.25,0,0,-1.25,342.83481,645.47897)">
      <path
         inkscape:connector-curvature="0"
         d="m 0,0 c 0,-2.505 -2.029,-4.535 -4.535,-4.535 -2.504,0 -4.535,2.03 -4.535,4.535 0,2.505 2.031,4.535 4.535,4.535 C -2.029,4.535 0,2.505 0,0 z"
         style="fill:none;stroke:#ff0000;stroke-width:0.1;stroke-linecap:butt;stroke-linejoin:miter;stroke-miterlimit:10;stroke-opacity:1;stroke-dasharray:none"
         id="path4685" />
    </g>
    <g
       id="g4687"
       transform="matrix(1.25,0,0,-1.25,413.70151,645.47897)">
      <path
         inkscape:connector-curvature="0"
         d="m 0,0 c 0,-2.505 -2.029,-4.535 -4.535,-4.535 -2.504,0 -4.535,2.03 -4.535,4.535 0,2.505 2.031,4.535 4.535,4.535 C -2.029,4.535 0,2.505 0,0 z"
         style="fill:none;stroke:#ff0000;stroke-width:0.1;stroke-linecap:butt;stroke-linejoin:miter;stroke-miterlimit:10;stroke-opacity:1;stroke-dasharray:none"
         id="path4689" />
    </g>
    <g
       id="g4691"
       transform="matrix(1.25,0,0,-1.25,413.70151,716.34577)">
      <path
         inkscape:connector-curvature="0"
         d="m 0,0 c 0,-2.506 -2.031,-4.535 -4.535,-4.535 -2.504,0 -4.535,2.029 -4.535,4.535 0,2.504 2.031,4.535 4.535,4.535 C -2.031,4.535 0,2.504 0,0 z"
         style="fill:none;stroke:#ff0000;stroke-width:0.1;stroke-linecap:butt;stroke-linejoin:miter;stroke-miterlimit:10;stroke-opacity:1;stroke-dasharray:none"
         id="path4693" />
    </g>
    <g
       id="g4695"
       transform="matrix(1.25,0,0,-1.25,484.56821,645.47897)">
      <path
         inkscape:connector-curvature="0"
         d="m 0,0 c 0,-2.505 -2.031,-4.535 -4.535,-4.535 -2.506,0 -4.535,2.03 -4.535,4.535 0,2.505 2.029,4.535 4.535,4.535 C -2.031,4.535 0,2.505 0,0 z"
         style="fill:none;stroke:#ff0000;stroke-width:0.1;stroke-linecap:butt;stroke-linejoin:miter;stroke-miterlimit:10;stroke-opacity:1;stroke-dasharray:none"
         id="path4697" />
    </g>
    <g
       id="g4699"
       transform="matrix(1.25,0,0,-1.25,59.370502,858.07677)">
      <path
         inkscape:connector-curvature="0"
         d="m 0,0 c 0,-2.508 -2.029,-4.537 -4.535,-4.537 -2.504,0 -4.535,2.029 -4.535,4.537 0,2.504 2.031,4.535 4.535,4.535 C -2.029,4.535 0,2.504 0,0 z"
         style="fill:none;stroke:#ff0000;stroke-width:0.1;stroke-linecap:butt;stroke-linejoin:miter;stroke-miterlimit:10;stroke-opacity:1;stroke-dasharray:none"
         id="path4701" />
    </g>
    <g
       id="g4703"
       transform="matrix(1.25,0,0,-1.25,130.2371,858.07677)">
      <path
         inkscape:connector-curvature="0"
         d="m 0,0 c 0,-2.508 -2.031,-4.537 -4.535,-4.537 -2.504,0 -4.535,2.029 -4.535,4.537 0,2.504 2.031,4.535 4.535,4.535 C -2.031,4.535 0,2.504 0,0 z"
         style="fill:none;stroke:#ff0000;stroke-width:0.1;stroke-linecap:butt;stroke-linejoin:miter;stroke-miterlimit:10;stroke-opacity:1;stroke-dasharray:none"
         id="path4705" />
    </g>
    <g
       id="g4707"
       transform="matrix(1.25,0,0,-1.25,201.1038,787.20997)">
      <path
         inkscape:connector-curvature="0"
         d="m 0,0 c 0,-2.506 -2.031,-4.535 -4.535,-4.535 -2.506,0 -4.535,2.029 -4.535,4.535 0,2.504 2.029,4.535 4.535,4.535 C -2.031,4.535 0,2.504 0,0 z"
         style="fill:none;stroke:#ff0000;stroke-width:0.1;stroke-linecap:butt;stroke-linejoin:miter;stroke-miterlimit:10;stroke-opacity:1;stroke-dasharray:none"
         id="path4709" />
    </g>
    <g
       id="g4711"
       transform="matrix(1.25,0,0,-1.25,201.1038,858.07677)">
      <path
         inkscape:connector-curvature="0"
         d="m 0,0 c 0,-2.508 -2.031,-4.537 -4.535,-4.537 -2.506,0 -4.535,2.029 -4.535,4.537 0,2.504 2.029,4.535 4.535,4.535 C -2.031,4.535 0,2.504 0,0 z"
         style="fill:none;stroke:#ff0000;stroke-width:0.1;stroke-linecap:butt;stroke-linejoin:miter;stroke-miterlimit:10;stroke-opacity:1;stroke-dasharray:none"
         id="path4713" />
    </g>
    <g
       id="g4715"
       transform="matrix(1.25,0,0,-1.25,271.97061,858.07677)">
      <path
         inkscape:connector-curvature="0"
         d="m 0,0 c 0,-2.508 -2.031,-4.537 -4.535,-4.537 -2.506,0 -4.537,2.029 -4.537,4.537 0,2.504 2.031,4.535 4.537,4.535 C -2.031,4.535 0,2.504 0,0 z"
         style="fill:none;stroke:#ff0000;stroke-width:0.1;stroke-linecap:butt;stroke-linejoin:miter;stroke-miterlimit:10;stroke-opacity:1;stroke-dasharray:none"
         id="path4717" />
    </g>
    <g
       id="g4719"
       transform="matrix(1.25,0,0,-1.25,413.70151,787.20997)">
      <path
         inkscape:connector-curvature="0"
         d="m 0,0 c 0,-2.506 -2.029,-4.535 -4.535,-4.535 -2.504,0 -4.535,2.029 -4.535,4.535 0,2.504 2.031,4.535 4.535,4.535 C -2.029,4.535 0,2.504 0,0 z"
         style="fill:none;stroke:#ff0000;stroke-width:0.1;stroke-linecap:butt;stroke-linejoin:miter;stroke-miterlimit:10;stroke-opacity:1;stroke-dasharray:none"
         id="path4721" />
    </g>
    <g
       id="g4723"
       transform="matrix(1.25,0,0,-1.25,342.83481,858.07677)">
      <path
         inkscape:connector-curvature="0"
         d="m 0,0 c 0,-2.508 -2.029,-4.537 -4.535,-4.537 -2.504,0 -4.535,2.029 -4.535,4.537 0,2.504 2.031,4.535 4.535,4.535 C -2.029,4.535 0,2.504 0,0 z"
         style="fill:none;stroke:#ff0000;stroke-width:0.1;stroke-linecap:butt;stroke-linejoin:miter;stroke-miterlimit:10;stroke-opacity:1;stroke-dasharray:none"
         id="path4725" />
    </g>
    <g
       id="g4727"
       transform="matrix(1.25,0,0,-1.25,413.70151,858.07677)">
      <path
         inkscape:connector-curvature="0"
         d="m 0,0 c 0,-2.508 -2.031,-4.537 -4.535,-4.537 -2.504,0 -4.535,2.029 -4.535,4.537 0,2.504 2.031,4.535 4.535,4.535 C -2.031,4.535 0,2.504 0,0 z"
         style="fill:none;stroke:#ff0000;stroke-width:0.1;stroke-linecap:butt;stroke-linejoin:miter;stroke-miterlimit:10;stroke-opacity:1;stroke-dasharray:none"
         id="path4729" />
    </g>
    <g
       id="g4731"
       transform="matrix(1.25,0,0,-1.25,484.56821,858.07677)">
      <path
         inkscape:connector-curvature="0"
         d="m 0,0 c 0,-2.508 -2.031,-4.537 -4.535,-4.537 -2.506,0 -4.535,2.029 -4.535,4.537 0,2.504 2.029,4.535 4.535,4.535 C -2.031,4.535 0,2.504 0,0 z"
         style="fill:none;stroke:#ff0000;stroke-width:0.1;stroke-linecap:butt;stroke-linejoin:miter;stroke-miterlimit:10;stroke-opacity:1;stroke-dasharray:none"
         id="path4733" />
    </g>
    <g
       id="g4735"
       transform="matrix(1.25,0,0,-1.25,201.1038,928.94337)">
      <path
         inkscape:connector-curvature="0"
         d="m 0,0 c 0,-2.504 -2.031,-4.535 -4.535,-4.535 -2.506,0 -4.535,2.031 -4.535,4.535 0,2.506 2.029,4.535 4.535,4.535 C -2.031,4.535 0,2.506 0,0 z"
         style="fill:none;stroke:#ff0000;stroke-width:0.1;stroke-linecap:butt;stroke-linejoin:miter;stroke-miterlimit:10;stroke-opacity:1;stroke-dasharray:none"
         id="path4737" />
    </g>
    <g
       id="g4739"
       transform="matrix(1.25,0,0,-1.25,201.1038,999.8102)">
      <path
         inkscape:connector-curvature="0"
         d="m 0,0 c 0,-2.504 -2.031,-4.535 -4.535,-4.535 -2.506,0 -4.535,2.031 -4.535,4.535 0,2.506 2.029,4.537 4.535,4.537 C -2.031,4.537 0,2.506 0,0 z"
         style="fill:none;stroke:#ff0000;stroke-width:0.1;stroke-linecap:butt;stroke-linejoin:miter;stroke-miterlimit:10;stroke-opacity:1;stroke-dasharray:none"
         id="path4741" />
    </g>
    <g
       id="g4743"
       transform="matrix(1.25,0,0,-1.25,413.70151,928.94337)">
      <path
         inkscape:connector-curvature="0"
         d="m 0,0 c 0,-2.504 -2.029,-4.535 -4.535,-4.535 -2.504,0 -4.535,2.031 -4.535,4.535 0,2.506 2.031,4.535 4.535,4.535 C -2.029,4.535 0,2.506 0,0 z"
         style="fill:none;stroke:#ff0000;stroke-width:0.1;stroke-linecap:butt;stroke-linejoin:miter;stroke-miterlimit:10;stroke-opacity:1;stroke-dasharray:none"
         id="path4745" />
    </g>
    <g
       id="g4747"
       transform="matrix(1.25,0,0,-1.25,413.70151,999.8102)">
      <path
         inkscape:connector-curvature="0"
         d="m 0,0 c 0,-2.504 -2.031,-4.535 -4.535,-4.535 -2.504,0 -4.535,2.031 -4.535,4.535 0,2.506 2.031,4.537 4.535,4.537 C -2.031,4.537 0,2.506 0,0 z"
         style="fill:none;stroke:#ff0000;stroke-width:0.1;stroke-linecap:butt;stroke-linejoin:miter;stroke-miterlimit:10;stroke-opacity:1;stroke-dasharray:none"
         id="path4749" />
    </g>
    <g
       id="g4751"
       transform="matrix(1.25,0,0,-1.25,555.43481,645.47897)">
      <path
         inkscape:connector-curvature="0"
         d="m 0,0 c 0,-2.505 -2.031,-4.535 -4.535,-4.535 -2.506,0 -4.535,2.03 -4.535,4.535 0,2.505 2.029,4.535 4.535,4.535 C -2.031,4.535 0,2.505 0,0 z"
         style="fill:none;stroke:#ff0000;stroke-width:0.1;stroke-linecap:butt;stroke-linejoin:miter;stroke-miterlimit:10;stroke-opacity:1;stroke-dasharray:none"
         id="path4753" />
    </g>
    <g
       id="g4755"
       transform="matrix(1.25,0,0,-1.25,555.43481,858.07677)">
      <path
         inkscape:connector-curvature="0"
         d="m 0,0 c 0,-2.508 -2.031,-4.537 -4.535,-4.537 -2.506,0 -4.537,2.029 -4.537,4.537 0,2.504 2.031,4.535 4.537,4.535 C -2.031,4.535 0,2.504 0,0 z"
         style="fill:none;stroke:#ff0000;stroke-width:0.1;stroke-linecap:butt;stroke-linejoin:miter;stroke-miterlimit:10;stroke-opacity:1;stroke-dasharray:none"
         id="path4757" />
    </g>
    <g
       id="g4759"
       transform="matrix(1.25,0,0,-1.25,585.19811,1029.5733)">
      <path
         inkscape:connector-curvature="0"
         d="m 0,0 c 0,-2.494 -2.041,-4.535 -4.535,-4.535 l -444.472,0 c -2.495,0 -4.536,2.041 -4.536,4.535 l 0,444.473 c 0,2.494 2.041,4.535 4.536,4.535 l 444.472,0 c 2.494,0 4.535,-2.041 4.535,-4.535 L 0,0 z"
         style="fill:none;stroke:#ff0000;stroke-width:0.1;stroke-linecap:butt;stroke-linejoin:miter;stroke-miterlimit:10;stroke-opacity:1;stroke-dasharray:none"
         id="path4761" />
    </g>
  </g>
</svg>
