<?xml version="1.0" encoding="UTF-8" standalone="no"?>
<!-- Created with Inkscape (http://www.inkscape.org/) -->

<svg
   xmlns:dc="http://purl.org/dc/elements/1.1/"
   xmlns:cc="http://creativecommons.org/ns#"
   xmlns:rdf="http://www.w3.org/1999/02/22-rdf-syntax-ns#"
   xmlns:svg="http://www.w3.org/2000/svg"
   xmlns="http://www.w3.org/2000/svg"
   xmlns:sodipodi="http://sodipodi.sourceforge.net/DTD/sodipodi-0.dtd"
   xmlns:inkscape="http://www.inkscape.org/namespaces/inkscape"
   width="602.36218"
   height="602.36218"
   id="svg2"
   version="1.1"
   inkscape:version="0.48.4 r9939"
   sodipodi:docname="x-BIMU Bracket.svg">
  <defs
     id="defs4">
    <clipPath
       id="clipPath4535"
       clipPathUnits="userSpaceOnUse">
      <path
         id="path4537"
         d="m 0,1717.797 1250.08,0 L 1250.08,0 0,0 0,1717.797 z"
         inkscape:connector-curvature="0" />
    </clipPath>
    <clipPath
       id="clipPath2999"
       clipPathUnits="userSpaceOnUse">
      <path
         id="path3001"
         d="m 0,1717.797 1250.08,0 L 1250.08,0 0,0 0,1717.797 z"
         inkscape:connector-curvature="0" />
    </clipPath>
    <clipPath
       id="clipPath10098"
       clipPathUnits="userSpaceOnUse">
      <path
         id="path10100"
         d="m 0,850.39 1133.86,0 L 1133.86,0 0,0 0,850.39 z"
         inkscape:connector-curvature="0" />
    </clipPath>
    <clipPath
       id="clipPath9326"
       clipPathUnits="userSpaceOnUse">
      <path
         id="path9328"
         d="m 0,850.39 1133.86,0 L 1133.86,0 0,0 0,850.39 z"
         inkscape:connector-curvature="0" />
    </clipPath>
    <clipPath
       id="clipPath11783"
       clipPathUnits="userSpaceOnUse">
      <path
         id="path11785"
         d="m 0,850.39 1133.86,0 L 1133.86,0 0,0 0,850.39 z"
         inkscape:connector-curvature="0" />
    </clipPath>
    <clipPath
       id="clipPath11011"
       clipPathUnits="userSpaceOnUse">
      <path
         id="path11013"
         d="m 0,850.39 1133.86,0 L 1133.86,0 0,0 0,850.39 z"
         inkscape:connector-curvature="0" />
    </clipPath>
  </defs>
  <sodipodi:namedview
     id="base"
     pagecolor="#ffffff"
     bordercolor="#666666"
     borderopacity="1.0"
     inkscape:pageopacity="0.0"
     inkscape:pageshadow="2"
     inkscape:zoom="1.5455818"
     inkscape:cx="301.18109"
     inkscape:cy="301.18109"
     inkscape:document-units="px"
     inkscape:current-layer="layer1"
     showgrid="false"
     inkscape:window-width="1920"
     inkscape:window-height="1148"
     inkscape:window-x="1072"
     inkscape:window-y="328"
     inkscape:window-maximized="1"
     units="cm" />
  <metadata
     id="metadata7">
    <rdf:RDF>
      <cc:Work
         rdf:about="">
        <dc:format>image/svg+xml</dc:format>
        <dc:type
           rdf:resource="http://purl.org/dc/dcmitype/StillImage" />
        <dc:title></dc:title>
      </cc:Work>
    </rdf:RDF>
  </metadata>
  <g
     inkscape:label="Layer 1"
     inkscape:groupmode="layer"
     id="layer1"
     transform="translate(0,-449.99874)">
    <g
       id="g4763"
       transform="matrix(1.25,0,0,-1.25,200.4518,505.94872)">
      <path
         inkscape:connector-curvature="0"
         d="m 0,0 c 0,-2.506 -2.031,-4.535 -4.535,-4.535 -2.506,0 -4.535,2.029 -4.535,4.535 0,2.504 2.029,4.535 4.535,4.535 C -2.031,4.535 0,2.504 0,0 z"
         style="fill:none;stroke:#ff0000;stroke-width:0.1;stroke-linecap:butt;stroke-linejoin:miter;stroke-miterlimit:10;stroke-opacity:1;stroke-dasharray:none"
         id="path4765" />
    </g>
    <g
       id="g4767"
       transform="matrix(1.25,0,0,-1.25,200.4518,576.81543)">
      <path
         inkscape:connector-curvature="0"
         d="m 0,0 c 0,-2.506 -2.031,-4.535 -4.535,-4.535 -2.506,0 -4.535,2.029 -4.535,4.535 0,2.504 2.029,4.535 4.535,4.535 C -2.031,4.535 0,2.504 0,0 z"
         style="fill:none;stroke:#ff0000;stroke-width:0.1;stroke-linecap:butt;stroke-linejoin:miter;stroke-miterlimit:10;stroke-opacity:1;stroke-dasharray:none"
         id="path4769" />
    </g>
    <g
       id="g4771"
       transform="matrix(1.25,0,0,-1.25,413.04942,505.94872)">
      <path
         inkscape:connector-curvature="0"
         d="m 0,0 c 0,-2.506 -2.029,-4.535 -4.535,-4.535 -2.504,0 -4.535,2.029 -4.535,4.535 0,2.504 2.031,4.535 4.535,4.535 C -2.029,4.535 0,2.504 0,0 z"
         style="fill:none;stroke:#ff0000;stroke-width:0.1;stroke-linecap:butt;stroke-linejoin:miter;stroke-miterlimit:10;stroke-opacity:1;stroke-dasharray:none"
         id="path4773" />
    </g>
    <g
       id="g4775"
       transform="matrix(1.25,0,0,-1.25,413.04942,576.81543)">
      <path
         inkscape:connector-curvature="0"
         d="m 0,0 c 0,-2.506 -2.031,-4.535 -4.535,-4.535 -2.504,0 -4.535,2.029 -4.535,4.535 0,2.504 2.031,4.535 4.535,4.535 C -2.031,4.535 0,2.504 0,0 z"
         style="fill:none;stroke:#ff0000;stroke-width:0.1;stroke-linecap:butt;stroke-linejoin:miter;stroke-miterlimit:10;stroke-opacity:1;stroke-dasharray:none"
         id="path4777" />
    </g>
    <g
       id="g4779"
       transform="matrix(1.25,0,0,-1.25,58.718426,647.68203)">
      <path
         inkscape:connector-curvature="0"
         d="m 0,0 c 0,-2.504 -2.029,-4.535 -4.535,-4.535 -2.504,0 -4.535,2.031 -4.535,4.535 0,2.506 2.031,4.535 4.535,4.535 C -2.029,4.535 0,2.506 0,0 z"
         style="fill:none;stroke:#ff0000;stroke-width:0.1;stroke-linecap:butt;stroke-linejoin:miter;stroke-miterlimit:10;stroke-opacity:1;stroke-dasharray:none"
         id="path4781" />
    </g>
    <g
       id="g4783"
       transform="matrix(1.25,0,0,-1.25,129.58504,647.68203)">
      <path
         inkscape:connector-curvature="0"
         d="m 0,0 c 0,-2.504 -2.029,-4.535 -4.535,-4.535 -2.504,0 -4.535,2.031 -4.535,4.535 0,2.506 2.031,4.535 4.535,4.535 C -2.029,4.535 0,2.506 0,0 z"
         style="fill:none;stroke:#ff0000;stroke-width:0.1;stroke-linecap:butt;stroke-linejoin:miter;stroke-miterlimit:10;stroke-opacity:1;stroke-dasharray:none"
         id="path4785" />
    </g>
    <g
       id="g4787"
       transform="matrix(1.25,0,0,-1.25,200.4518,647.68203)">
      <path
         inkscape:connector-curvature="0"
         d="m 0,0 c 0,-2.504 -2.031,-4.535 -4.535,-4.535 -2.506,0 -4.535,2.031 -4.535,4.535 0,2.506 2.029,4.535 4.535,4.535 C -2.031,4.535 0,2.506 0,0 z"
         style="fill:none;stroke:#ff0000;stroke-width:0.1;stroke-linecap:butt;stroke-linejoin:miter;stroke-miterlimit:10;stroke-opacity:1;stroke-dasharray:none"
         id="path4789" />
    </g>
    <g
       id="g4791"
       transform="matrix(1.25,0,0,-1.25,271.31854,647.68203)">
      <path
         inkscape:connector-curvature="0"
         d="m 0,0 c 0,-2.504 -2.031,-4.535 -4.535,-4.535 -2.506,0 -4.535,2.031 -4.535,4.535 0,2.506 2.029,4.535 4.535,4.535 C -2.031,4.535 0,2.506 0,0 z"
         style="fill:none;stroke:#ff0000;stroke-width:0.1;stroke-linecap:butt;stroke-linejoin:miter;stroke-miterlimit:10;stroke-opacity:1;stroke-dasharray:none"
         id="path4793" />
    </g>
    <g
       id="g4795"
       transform="matrix(1.25,0,0,-1.25,200.4518,718.54753)">
      <path
         inkscape:connector-curvature="0"
         d="m 0,0 c 0,-2.506 -2.031,-4.535 -4.535,-4.535 -2.506,0 -4.535,2.029 -4.535,4.535 0,2.505 2.029,4.536 4.535,4.536 C -2.031,4.536 0,2.505 0,0 z"
         style="fill:none;stroke:#ff0000;stroke-width:0.1;stroke-linecap:butt;stroke-linejoin:miter;stroke-miterlimit:10;stroke-opacity:1;stroke-dasharray:none"
         id="path4797" />
    </g>
    <g
       id="g4799"
       transform="matrix(1.25,0,0,-1.25,342.1828,647.68203)">
      <path
         inkscape:connector-curvature="0"
         d="m 0,0 c 0,-2.504 -2.029,-4.535 -4.535,-4.535 -2.504,0 -4.535,2.031 -4.535,4.535 0,2.506 2.031,4.535 4.535,4.535 C -2.029,4.535 0,2.506 0,0 z"
         style="fill:none;stroke:#ff0000;stroke-width:0.1;stroke-linecap:butt;stroke-linejoin:miter;stroke-miterlimit:10;stroke-opacity:1;stroke-dasharray:none"
         id="path4801" />
    </g>
    <g
       id="g4803"
       transform="matrix(1.25,0,0,-1.25,413.04942,647.68203)">
      <path
         inkscape:connector-curvature="0"
         d="m 0,0 c 0,-2.504 -2.029,-4.535 -4.535,-4.535 -2.504,0 -4.535,2.031 -4.535,4.535 0,2.506 2.031,4.535 4.535,4.535 C -2.029,4.535 0,2.506 0,0 z"
         style="fill:none;stroke:#ff0000;stroke-width:0.1;stroke-linecap:butt;stroke-linejoin:miter;stroke-miterlimit:10;stroke-opacity:1;stroke-dasharray:none"
         id="path4805" />
    </g>
    <g
       id="g4807"
       transform="matrix(1.25,0,0,-1.25,413.04942,718.54753)">
      <path
         inkscape:connector-curvature="0"
         d="m 0,0 c 0,-2.506 -2.031,-4.535 -4.535,-4.535 -2.504,0 -4.535,2.029 -4.535,4.535 0,2.505 2.031,4.536 4.535,4.536 C -2.031,4.536 0,2.505 0,0 z"
         style="fill:none;stroke:#ff0000;stroke-width:0.1;stroke-linecap:butt;stroke-linejoin:miter;stroke-miterlimit:10;stroke-opacity:1;stroke-dasharray:none"
         id="path4809" />
    </g>
    <g
       id="g4811"
       transform="matrix(1.25,0,0,-1.25,483.91617,647.68203)">
      <path
         inkscape:connector-curvature="0"
         d="m 0,0 c 0,-2.504 -2.031,-4.535 -4.535,-4.535 -2.506,0 -4.535,2.031 -4.535,4.535 0,2.506 2.029,4.535 4.535,4.535 C -2.031,4.535 0,2.506 0,0 z"
         style="fill:none;stroke:#ff0000;stroke-width:0.1;stroke-linecap:butt;stroke-linejoin:miter;stroke-miterlimit:10;stroke-opacity:1;stroke-dasharray:none"
         id="path4813" />
    </g>
    <g
       id="g4815"
       transform="matrix(1.25,0,0,-1.25,58.718426,860.27853)">
      <path
         inkscape:connector-curvature="0"
         d="m 0,0 c 0,-2.506 -2.029,-4.535 -4.535,-4.535 -2.504,0 -4.535,2.029 -4.535,4.535 0,2.504 2.031,4.535 4.535,4.535 C -2.029,4.535 0,2.504 0,0 z"
         style="fill:none;stroke:#ff0000;stroke-width:0.1;stroke-linecap:butt;stroke-linejoin:miter;stroke-miterlimit:10;stroke-opacity:1;stroke-dasharray:none"
         id="path4817" />
    </g>
    <g
       id="g4819"
       transform="matrix(1.25,0,0,-1.25,129.58504,860.27853)">
      <path
         inkscape:connector-curvature="0"
         d="m 0,0 c 0,-2.506 -2.031,-4.535 -4.535,-4.535 -2.504,0 -4.535,2.029 -4.535,4.535 0,2.504 2.031,4.535 4.535,4.535 C -2.031,4.535 0,2.504 0,0 z"
         style="fill:none;stroke:#ff0000;stroke-width:0.1;stroke-linecap:butt;stroke-linejoin:miter;stroke-miterlimit:10;stroke-opacity:1;stroke-dasharray:none"
         id="path4821" />
    </g>
    <g
       id="g4823"
       transform="matrix(1.25,0,0,-1.25,200.4518,789.41183)">
      <path
         inkscape:connector-curvature="0"
         d="m 0,0 c 0,-2.506 -2.031,-4.535 -4.535,-4.535 -2.506,0 -4.535,2.029 -4.535,4.535 0,2.504 2.029,4.535 4.535,4.535 C -2.031,4.535 0,2.504 0,0 z"
         style="fill:none;stroke:#ff0000;stroke-width:0.1;stroke-linecap:butt;stroke-linejoin:miter;stroke-miterlimit:10;stroke-opacity:1;stroke-dasharray:none"
         id="path4825" />
    </g>
    <g
       id="g4827"
       transform="matrix(1.25,0,0,-1.25,200.4518,860.27853)">
      <path
         inkscape:connector-curvature="0"
         d="m 0,0 c 0,-2.506 -2.031,-4.535 -4.535,-4.535 -2.506,0 -4.535,2.029 -4.535,4.535 0,2.504 2.029,4.535 4.535,4.535 C -2.031,4.535 0,2.504 0,0 z"
         style="fill:none;stroke:#ff0000;stroke-width:0.1;stroke-linecap:butt;stroke-linejoin:miter;stroke-miterlimit:10;stroke-opacity:1;stroke-dasharray:none"
         id="path4829" />
    </g>
    <g
       id="g4831"
       transform="matrix(1.25,0,0,-1.25,271.31854,860.27853)">
      <path
         inkscape:connector-curvature="0"
         d="m 0,0 c 0,-2.506 -2.031,-4.535 -4.535,-4.535 -2.506,0 -4.537,2.029 -4.537,4.535 0,2.504 2.031,4.535 4.537,4.535 C -2.031,4.535 0,2.504 0,0 z"
         style="fill:none;stroke:#ff0000;stroke-width:0.1;stroke-linecap:butt;stroke-linejoin:miter;stroke-miterlimit:10;stroke-opacity:1;stroke-dasharray:none"
         id="path4833" />
    </g>
    <g
       id="g4835"
       transform="matrix(1.25,0,0,-1.25,413.04942,789.41183)">
      <path
         inkscape:connector-curvature="0"
         d="m 0,0 c 0,-2.506 -2.029,-4.535 -4.535,-4.535 -2.504,0 -4.535,2.029 -4.535,4.535 0,2.504 2.031,4.535 4.535,4.535 C -2.029,4.535 0,2.504 0,0 z"
         style="fill:none;stroke:#ff0000;stroke-width:0.1;stroke-linecap:butt;stroke-linejoin:miter;stroke-miterlimit:10;stroke-opacity:1;stroke-dasharray:none"
         id="path4837" />
    </g>
    <g
       id="g4839"
       transform="matrix(1.25,0,0,-1.25,342.1828,860.27853)">
      <path
         inkscape:connector-curvature="0"
         d="m 0,0 c 0,-2.506 -2.029,-4.535 -4.535,-4.535 -2.504,0 -4.535,2.029 -4.535,4.535 0,2.504 2.031,4.535 4.535,4.535 C -2.029,4.535 0,2.504 0,0 z"
         style="fill:none;stroke:#ff0000;stroke-width:0.1;stroke-linecap:butt;stroke-linejoin:miter;stroke-miterlimit:10;stroke-opacity:1;stroke-dasharray:none"
         id="path4841" />
    </g>
    <g
       id="g4843"
       transform="matrix(1.25,0,0,-1.25,413.04942,860.27853)">
      <path
         inkscape:connector-curvature="0"
         d="m 0,0 c 0,-2.506 -2.031,-4.535 -4.535,-4.535 -2.504,0 -4.535,2.029 -4.535,4.535 0,2.504 2.031,4.535 4.535,4.535 C -2.031,4.535 0,2.504 0,0 z"
         style="fill:none;stroke:#ff0000;stroke-width:0.1;stroke-linecap:butt;stroke-linejoin:miter;stroke-miterlimit:10;stroke-opacity:1;stroke-dasharray:none"
         id="path4845" />
    </g>
    <g
       id="g4847"
       transform="matrix(1.25,0,0,-1.25,483.91617,860.27853)">
      <path
         inkscape:connector-curvature="0"
         d="m 0,0 c 0,-2.506 -2.031,-4.535 -4.535,-4.535 -2.506,0 -4.535,2.029 -4.535,4.535 0,2.504 2.029,4.535 4.535,4.535 C -2.031,4.535 0,2.504 0,0 z"
         style="fill:none;stroke:#ff0000;stroke-width:0.1;stroke-linecap:butt;stroke-linejoin:miter;stroke-miterlimit:10;stroke-opacity:1;stroke-dasharray:none"
         id="path4849" />
    </g>
    <g
       id="g4851"
       transform="matrix(1.25,0,0,-1.25,200.4518,931.14523)">
      <path
         inkscape:connector-curvature="0"
         d="m 0,0 c 0,-2.504 -2.031,-4.535 -4.535,-4.535 -2.506,0 -4.535,2.031 -4.535,4.535 0,2.506 2.029,4.535 4.535,4.535 C -2.031,4.535 0,2.506 0,0 z"
         style="fill:none;stroke:#ff0000;stroke-width:0.1;stroke-linecap:butt;stroke-linejoin:miter;stroke-miterlimit:10;stroke-opacity:1;stroke-dasharray:none"
         id="path4853" />
    </g>
    <g
       id="g4855"
       transform="matrix(1.25,0,0,-1.25,200.4518,1002.0119)">
      <path
         inkscape:connector-curvature="0"
         d="m 0,0 c 0,-2.504 -2.031,-4.535 -4.535,-4.535 -2.506,0 -4.535,2.031 -4.535,4.535 0,2.506 2.029,4.537 4.535,4.537 C -2.031,4.537 0,2.506 0,0 z"
         style="fill:none;stroke:#ff0000;stroke-width:0.1;stroke-linecap:butt;stroke-linejoin:miter;stroke-miterlimit:10;stroke-opacity:1;stroke-dasharray:none"
         id="path4857" />
    </g>
    <g
       id="g4859"
       transform="matrix(1.25,0,0,-1.25,413.04942,931.14523)">
      <path
         inkscape:connector-curvature="0"
         d="m 0,0 c 0,-2.504 -2.029,-4.535 -4.535,-4.535 -2.504,0 -4.535,2.031 -4.535,4.535 0,2.506 2.031,4.535 4.535,4.535 C -2.029,4.535 0,2.506 0,0 z"
         style="fill:none;stroke:#ff0000;stroke-width:0.1;stroke-linecap:butt;stroke-linejoin:miter;stroke-miterlimit:10;stroke-opacity:1;stroke-dasharray:none"
         id="path4861" />
    </g>
    <g
       id="g4863"
       transform="matrix(1.25,0,0,-1.25,413.04942,1002.0119)">
      <path
         inkscape:connector-curvature="0"
         d="m 0,0 c 0,-2.504 -2.031,-4.535 -4.535,-4.535 -2.504,0 -4.535,2.031 -4.535,4.535 0,2.506 2.031,4.537 4.535,4.537 C -2.031,4.537 0,2.506 0,0 z"
         style="fill:none;stroke:#ff0000;stroke-width:0.1;stroke-linecap:butt;stroke-linejoin:miter;stroke-miterlimit:10;stroke-opacity:1;stroke-dasharray:none"
         id="path4865" />
    </g>
    <g
       id="g4867"
       transform="matrix(1.25,0,0,-1.25,554.78279,647.68203)">
      <path
         inkscape:connector-curvature="0"
         d="m 0,0 c 0,-2.504 -2.031,-4.535 -4.535,-4.535 -2.506,0 -4.535,2.031 -4.535,4.535 0,2.506 2.029,4.535 4.535,4.535 C -2.031,4.535 0,2.506 0,0 z"
         style="fill:none;stroke:#ff0000;stroke-width:0.1;stroke-linecap:butt;stroke-linejoin:miter;stroke-miterlimit:10;stroke-opacity:1;stroke-dasharray:none"
         id="path4869" />
    </g>
    <g
       id="g4871"
       transform="matrix(1.25,0,0,-1.25,554.78279,860.27853)">
      <path
         inkscape:connector-curvature="0"
         d="m 0,0 c 0,-2.506 -2.031,-4.535 -4.535,-4.535 -2.506,0 -4.537,2.029 -4.537,4.535 0,2.504 2.031,4.535 4.537,4.535 C -2.031,4.535 0,2.504 0,0 z"
         style="fill:none;stroke:#ff0000;stroke-width:0.1;stroke-linecap:butt;stroke-linejoin:miter;stroke-miterlimit:10;stroke-opacity:1;stroke-dasharray:none"
         id="path4873" />
    </g>
    <g
       id="g4875"
       transform="matrix(1.25,0,0,-1.25,584.54605,1031.775)">
      <path
         inkscape:connector-curvature="0"
         d="m 0,0 c 0,-2.494 -2.041,-4.535 -4.535,-4.535 l -444.473,0 c -2.494,0 -4.535,2.041 -4.535,4.535 l 0,444.472 c 0,2.494 2.041,4.535 4.535,4.535 l 444.473,0 c 2.494,0 4.535,-2.041 4.535,-4.535 L 0,0 z"
         style="fill:none;stroke:#ff0000;stroke-width:0.1;stroke-linecap:butt;stroke-linejoin:miter;stroke-miterlimit:10;stroke-opacity:1;stroke-dasharray:none"
         id="path4877" />
    </g>
    <g
       id="g4879"
       transform="matrix(1.25,0,0,-1.25,354.23105,614.01993)">
      <path
         inkscape:connector-curvature="0"
         d="m 0,0 c 0,-1.949 -2.041,-3.543 -4.535,-3.543 l -75.969,0 c -2.494,0 -4.535,1.594 -4.535,3.543 0,1.949 2.041,3.543 4.535,3.543 l 75.969,0 C -2.041,3.543 0,1.949 0,0 z"
         style="fill:none;stroke:#ff0000;stroke-width:0.1;stroke-linecap:butt;stroke-linejoin:miter;stroke-miterlimit:10;stroke-opacity:1;stroke-dasharray:none"
         id="path4881" />
    </g>
    <g
       id="g4883"
       transform="matrix(1.25,0,0,-1.25,552.65642,614.01993)">
      <path
         inkscape:connector-curvature="0"
         d="m 0,0 c 0,-1.949 -2.041,-3.543 -4.535,-3.543 l -75.969,0 c -2.494,0 -4.535,1.594 -4.535,3.543 0,1.949 2.041,3.543 4.535,3.543 l 75.969,0 C -2.041,3.543 0,1.949 0,0 z"
         style="fill:none;stroke:#ff0000;stroke-width:0.1;stroke-linecap:butt;stroke-linejoin:miter;stroke-miterlimit:10;stroke-opacity:1;stroke-dasharray:none"
         id="path4885" />
    </g>
    <g
       id="g4887"
       transform="matrix(1.25,0,0,-1.25,552.65642,688.42923)">
      <path
         inkscape:connector-curvature="0"
         d="m 0,0 c 0,-1.949 -2.041,-3.543 -4.535,-3.543 l -75.969,0 c -2.494,0 -4.535,1.594 -4.535,3.543 0,1.949 2.041,3.543 4.535,3.543 l 75.969,0 C -2.041,3.543 0,1.949 0,0 z"
         style="fill:none;stroke:#ff0000;stroke-width:0.1;stroke-linecap:butt;stroke-linejoin:miter;stroke-miterlimit:10;stroke-opacity:1;stroke-dasharray:none"
         id="path4889" />
    </g>
    <g
       id="g4891"
       transform="matrix(1.25,0,0,-1.25,354.23105,688.42923)">
      <path
         inkscape:connector-curvature="0"
         d="m 0,0 c 0,-1.949 -2.041,-3.543 -4.535,-3.543 l -75.969,0 c -2.494,0 -4.535,1.594 -4.535,3.543 0,1.949 2.041,3.543 4.535,3.543 l 75.969,0 C -2.041,3.543 0,1.949 0,0 z"
         style="fill:none;stroke:#ff0000;stroke-width:0.1;stroke-linecap:butt;stroke-linejoin:miter;stroke-miterlimit:10;stroke-opacity:1;stroke-dasharray:none"
         id="path4893" />
    </g>
    <g
       id="g4895"
       transform="matrix(1.25,0,0,-1.25,155.8058,614.01993)">
      <path
         inkscape:connector-curvature="0"
         d="m 0,0 c 0,-1.949 -2.041,-3.543 -4.535,-3.543 l -75.969,0 c -2.494,0 -4.535,1.594 -4.535,3.543 0,1.949 2.041,3.543 4.535,3.543 l 75.969,0 C -2.041,3.543 0,1.949 0,0 z"
         style="fill:none;stroke:#ff0000;stroke-width:0.1;stroke-linecap:butt;stroke-linejoin:miter;stroke-miterlimit:10;stroke-opacity:1;stroke-dasharray:none"
         id="path4897" />
    </g>
    <g
       id="g4899"
       transform="matrix(1.25,0,0,-1.25,354.23105,486.46142)">
      <path
         inkscape:connector-curvature="0"
         d="m 0,0 c 0,-1.949 -2.041,-3.543 -4.535,-3.543 l -75.969,0 c -2.494,0 -4.535,1.594 -4.535,3.543 0,1.949 2.041,3.543 4.535,3.543 l 75.969,0 C -2.041,3.543 0,1.949 0,0 z"
         style="fill:none;stroke:#ff0000;stroke-width:0.1;stroke-linecap:butt;stroke-linejoin:miter;stroke-miterlimit:10;stroke-opacity:1;stroke-dasharray:none"
         id="path4901" />
    </g>
    <g
       id="g4903"
       transform="matrix(1.25,0,0,-1.25,552.65642,486.46142)">
      <path
         inkscape:connector-curvature="0"
         d="m 0,0 c 0,-1.949 -2.041,-3.543 -4.535,-3.543 l -75.969,0 c -2.494,0 -4.535,1.594 -4.535,3.543 0,1.949 2.041,3.543 4.535,3.543 l 75.969,0 C -2.041,3.543 0,1.949 0,0 z"
         style="fill:none;stroke:#ff0000;stroke-width:0.1;stroke-linecap:butt;stroke-linejoin:miter;stroke-miterlimit:10;stroke-opacity:1;stroke-dasharray:none"
         id="path4905" />
    </g>
    <g
       id="g4907"
       transform="matrix(1.25,0,0,-1.25,155.8058,486.46142)">
      <path
         inkscape:connector-curvature="0"
         d="m 0,0 c 0,-1.949 -2.041,-3.543 -4.535,-3.543 l -75.969,0 c -2.494,0 -4.535,1.594 -4.535,3.543 0,1.949 2.041,3.543 4.535,3.543 l 75.969,0 C -2.041,3.543 0,1.949 0,0 z"
         style="fill:none;stroke:#ff0000;stroke-width:0.1;stroke-linecap:butt;stroke-linejoin:miter;stroke-miterlimit:10;stroke-opacity:1;stroke-dasharray:none"
         id="path4909" />
    </g>
    <g
       id="g4911"
       transform="matrix(1.25,0,0,-1.25,155.8058,688.42923)">
      <path
         inkscape:connector-curvature="0"
         d="m 0,0 c 0,-1.949 -2.041,-3.543 -4.535,-3.543 l -75.969,0 c -2.494,0 -4.535,1.594 -4.535,3.543 0,1.949 2.041,3.543 4.535,3.543 l 75.969,0 C -2.041,3.543 0,1.949 0,0 z"
         style="fill:none;stroke:#ff0000;stroke-width:0.1;stroke-linecap:butt;stroke-linejoin:miter;stroke-miterlimit:10;stroke-opacity:1;stroke-dasharray:none"
         id="path4913" />
    </g>
    <g
       id="g4915"
       transform="matrix(1.25,0,0,-1.25,354.23105,819.53143)">
      <path
         inkscape:connector-curvature="0"
         d="m 0,0 c 0,-1.947 -2.041,-3.543 -4.535,-3.543 l -75.969,0 c -2.494,0 -4.535,1.596 -4.535,3.543 0,1.949 2.041,3.545 4.535,3.545 l 75.969,0 C -2.041,3.545 0,1.949 0,0 z"
         style="fill:none;stroke:#ff0000;stroke-width:0.1;stroke-linecap:butt;stroke-linejoin:miter;stroke-miterlimit:10;stroke-opacity:1;stroke-dasharray:none"
         id="path4917" />
    </g>
    <g
       id="g4919"
       transform="matrix(1.25,0,0,-1.25,552.65642,819.53143)">
      <path
         inkscape:connector-curvature="0"
         d="m 0,0 c 0,-1.947 -2.041,-3.543 -4.535,-3.543 l -75.969,0 c -2.494,0 -4.535,1.596 -4.535,3.543 0,1.949 2.041,3.545 4.535,3.545 l 75.969,0 C -2.041,3.545 0,1.949 0,0 z"
         style="fill:none;stroke:#ff0000;stroke-width:0.1;stroke-linecap:butt;stroke-linejoin:miter;stroke-miterlimit:10;stroke-opacity:1;stroke-dasharray:none"
         id="path4921" />
    </g>
    <g
       id="g4923"
       transform="matrix(1.25,0,0,-1.25,552.65642,893.94073)">
      <path
         inkscape:connector-curvature="0"
         d="m 0,0 c 0,-1.947 -2.041,-3.543 -4.535,-3.543 l -75.969,0 c -2.494,0 -4.535,1.596 -4.535,3.543 0,1.949 2.041,3.545 4.535,3.545 l 75.969,0 C -2.041,3.545 0,1.949 0,0 z"
         style="fill:none;stroke:#ff0000;stroke-width:0.1;stroke-linecap:butt;stroke-linejoin:miter;stroke-miterlimit:10;stroke-opacity:1;stroke-dasharray:none"
         id="path4925" />
    </g>
    <g
       id="g4927"
       transform="matrix(1.25,0,0,-1.25,354.23105,893.94073)">
      <path
         inkscape:connector-curvature="0"
         d="m 0,0 c 0,-1.947 -2.041,-3.543 -4.535,-3.543 l -75.969,0 c -2.494,0 -4.535,1.596 -4.535,3.543 0,1.949 2.041,3.545 4.535,3.545 l 75.969,0 C -2.041,3.545 0,1.949 0,0 z"
         style="fill:none;stroke:#ff0000;stroke-width:0.1;stroke-linecap:butt;stroke-linejoin:miter;stroke-miterlimit:10;stroke-opacity:1;stroke-dasharray:none"
         id="path4929" />
    </g>
    <g
       id="g4931"
       transform="matrix(1.25,0,0,-1.25,155.8058,819.53143)">
      <path
         inkscape:connector-curvature="0"
         d="m 0,0 c 0,-1.947 -2.041,-3.543 -4.535,-3.543 l -75.969,0 c -2.494,0 -4.535,1.596 -4.535,3.543 0,1.949 2.041,3.545 4.535,3.545 l 75.969,0 C -2.041,3.545 0,1.949 0,0 z"
         style="fill:none;stroke:#ff0000;stroke-width:0.1;stroke-linecap:butt;stroke-linejoin:miter;stroke-miterlimit:10;stroke-opacity:1;stroke-dasharray:none"
         id="path4933" />
    </g>
    <g
       id="g4935"
       transform="matrix(1.25,0,0,-1.25,155.8058,893.94073)">
      <path
         inkscape:connector-curvature="0"
         d="m 0,0 c 0,-1.947 -2.041,-3.543 -4.535,-3.543 l -75.969,0 c -2.494,0 -4.535,1.596 -4.535,3.543 0,1.949 2.041,3.545 4.535,3.545 l 75.969,0 C -2.041,3.545 0,1.949 0,0 z"
         style="fill:none;stroke:#ff0000;stroke-width:0.1;stroke-linecap:butt;stroke-linejoin:miter;stroke-miterlimit:10;stroke-opacity:1;stroke-dasharray:none"
         id="path4937" />
    </g>
    <g
       id="g4939"
       transform="matrix(1.25,0,0,-1.25,552.65642,1021.4992)">
      <path
         inkscape:connector-curvature="0"
         d="m 0,0 c 0,-1.949 -2.041,-3.543 -4.535,-3.543 l -75.969,0 c -2.494,0 -4.535,1.594 -4.535,3.543 0,1.947 2.041,3.543 4.535,3.543 l 75.969,0 C -2.041,3.543 0,1.947 0,0 z"
         style="fill:none;stroke:#ff0000;stroke-width:0.1;stroke-linecap:butt;stroke-linejoin:miter;stroke-miterlimit:10;stroke-opacity:1;stroke-dasharray:none"
         id="path4941" />
    </g>
    <g
       id="g4943"
       transform="matrix(1.25,0,0,-1.25,354.23105,1021.4992)">
      <path
         inkscape:connector-curvature="0"
         d="m 0,0 c 0,-1.949 -2.041,-3.543 -4.535,-3.543 l -75.969,0 c -2.494,0 -4.535,1.594 -4.535,3.543 0,1.947 2.041,3.543 4.535,3.543 l 75.969,0 C -2.041,3.543 0,1.947 0,0 z"
         style="fill:none;stroke:#ff0000;stroke-width:0.1;stroke-linecap:butt;stroke-linejoin:miter;stroke-miterlimit:10;stroke-opacity:1;stroke-dasharray:none"
         id="path4945" />
    </g>
    <g
       id="g4947"
       transform="matrix(1.25,0,0,-1.25,155.8058,1021.4992)">
      <path
         inkscape:connector-curvature="0"
         d="m 0,0 c 0,-1.949 -2.041,-3.543 -4.535,-3.543 l -75.969,0 c -2.494,0 -4.535,1.594 -4.535,3.543 0,1.947 2.041,3.543 4.535,3.543 l 75.969,0 C -2.041,3.543 0,1.947 0,0 z"
         style="fill:none;stroke:#ff0000;stroke-width:0.1;stroke-linecap:butt;stroke-linejoin:miter;stroke-miterlimit:10;stroke-opacity:1;stroke-dasharray:none"
         id="path4949" />
    </g>
    <g
       id="g4951"
       transform="matrix(1.25,0,0,-1.25,169.89029,516.57852)">
      <path
         inkscape:connector-curvature="0"
         d="m 0,0 -12.473,0 0,3.969 c 0,2.494 -2.041,4.535 -4.535,4.535 l -71.93,0 c -2.494,0 -4.535,-2.041 -4.535,-4.535 l 0,-62.93 c 0,-2.494 2.041,-4.535 4.535,-4.535 l 71.93,0 c 2.494,0 4.535,2.041 4.535,4.535 l 0,33.448 12.473,0 c 2.494,0 4.535,2.041 4.535,4.536 l 0,16.441 C 4.535,-2.041 2.494,0 0,0 z"
         style="fill:none;stroke:#ff0000;stroke-width:0.1;stroke-linecap:butt;stroke-linejoin:miter;stroke-miterlimit:10;stroke-opacity:1;stroke-dasharray:none"
         id="path4953" />
    </g>
    <g
       id="g4955"
       transform="matrix(1.25,0,0,-1.25,169.89029,719.61083)">
      <path
         inkscape:connector-curvature="0"
         d="m 0,0 -12.473,0 0,3.969 c 0,2.494 -2.041,4.535 -4.535,4.535 l -71.93,0 c -2.494,0 -4.535,-2.041 -4.535,-4.535 l 0,-62.93 c 0,-2.494 2.041,-4.535 4.535,-4.535 l 71.93,0 c 2.494,0 4.535,2.041 4.535,4.535 l 0,33.448 12.473,0 c 2.494,0 4.535,2.041 4.535,4.536 l 0,16.441 C 4.535,-2.041 2.494,0 0,0 z"
         style="fill:none;stroke:#ff0000;stroke-width:0.1;stroke-linecap:butt;stroke-linejoin:miter;stroke-miterlimit:10;stroke-opacity:1;stroke-dasharray:none"
         id="path4957" />
    </g>
    <g
       id="g4959"
       transform="matrix(1.25,0,0,-1.25,367.29755,719.60953)">
      <path
         inkscape:connector-curvature="0"
         d="m 0,0 -12.473,0 0,3.969 c 0,2.494 -2.041,4.535 -4.535,4.535 l -71.93,0 c -2.494,0 -4.535,-2.041 -4.535,-4.535 l 0,-62.93 c 0,-2.494 2.041,-4.535 4.535,-4.535 l 71.93,0 c 2.494,0 4.535,2.041 4.535,4.535 l 0,33.449 12.473,0 c 2.494,0 4.535,2.041 4.535,4.535 l 0,16.442 C 4.535,-2.041 2.494,0 0,0 z"
         style="fill:none;stroke:#ff0000;stroke-width:0.1;stroke-linecap:butt;stroke-linejoin:miter;stroke-miterlimit:10;stroke-opacity:1;stroke-dasharray:none"
         id="path4961" />
    </g>
    <g
       id="g4963"
       transform="matrix(1.25,0,0,-1.25,564.70467,719.60953)">
      <path
         inkscape:connector-curvature="0"
         d="m 0,0 -12.473,0 0,3.969 c 0,2.494 -2.041,4.535 -4.535,4.535 l -71.93,0 c -2.494,0 -4.535,-2.041 -4.535,-4.535 l 0,-62.93 c 0,-2.494 2.041,-4.535 4.535,-4.535 l 71.93,0 c 2.494,0 4.535,2.041 4.535,4.535 l 0,33.449 12.473,0 c 2.494,0 4.535,2.041 4.535,4.535 l 0,16.442 C 4.535,-2.041 2.494,0 0,0 z"
         style="fill:none;stroke:#ff0000;stroke-width:0.1;stroke-linecap:butt;stroke-linejoin:miter;stroke-miterlimit:10;stroke-opacity:1;stroke-dasharray:none"
         id="path4965" />
    </g>
    <g
       id="g4967"
       transform="matrix(1.25,0,0,-1.25,564.70467,922.64183)">
      <path
         inkscape:connector-curvature="0"
         d="m 0,0 -12.473,0 0,3.969 c 0,2.494 -2.041,4.535 -4.535,4.535 l -71.93,0 c -2.494,0 -4.535,-2.041 -4.535,-4.535 l 0,-62.93 c 0,-2.494 2.041,-4.535 4.535,-4.535 l 71.93,0 c 2.494,0 4.535,2.041 4.535,4.535 l 0,33.449 12.473,0 c 2.494,0 4.535,2.041 4.535,4.535 l 0,16.442 C 4.535,-2.041 2.494,0 0,0 z"
         style="fill:none;stroke:#ff0000;stroke-width:0.1;stroke-linecap:butt;stroke-linejoin:miter;stroke-miterlimit:10;stroke-opacity:1;stroke-dasharray:none"
         id="path4969" />
    </g>
    <g
       id="g4971"
       transform="matrix(1.25,0,0,-1.25,367.29755,922.64183)">
      <path
         inkscape:connector-curvature="0"
         d="m 0,0 -12.473,0 0,3.969 c 0,2.494 -2.041,4.535 -4.535,4.535 l -71.93,0 c -2.494,0 -4.535,-2.041 -4.535,-4.535 l 0,-62.93 c 0,-2.494 2.041,-4.535 4.535,-4.535 l 71.93,0 c 2.494,0 4.535,2.041 4.535,4.535 l 0,33.449 12.473,0 c 2.494,0 4.535,2.041 4.535,4.535 l 0,16.442 C 4.535,-2.041 2.494,0 0,0 z"
         style="fill:none;stroke:#ff0000;stroke-width:0.1;stroke-linecap:butt;stroke-linejoin:miter;stroke-miterlimit:10;stroke-opacity:1;stroke-dasharray:none"
         id="path4973" />
    </g>
    <g
       id="g4975"
       transform="matrix(1.25,0,0,-1.25,169.89029,922.64183)">
      <path
         inkscape:connector-curvature="0"
         d="m 0,0 -12.473,0 0,3.969 c 0,2.494 -2.041,4.535 -4.535,4.535 l -71.93,0 c -2.494,0 -4.535,-2.041 -4.535,-4.535 l 0,-62.93 c 0,-2.494 2.041,-4.535 4.535,-4.535 l 71.93,0 c 2.494,0 4.535,2.041 4.535,4.535 l 0,33.449 12.473,0 c 2.494,0 4.535,2.041 4.535,4.535 l 0,16.442 C 4.535,-2.041 2.494,0 0,0 z"
         style="fill:none;stroke:#ff0000;stroke-width:0.1;stroke-linecap:butt;stroke-linejoin:miter;stroke-miterlimit:10;stroke-opacity:1;stroke-dasharray:none"
         id="path4977" />
    </g>
    <g
       id="g4979"
       transform="matrix(1.25,0,0,-1.25,564.79867,516.57852)">
      <path
         inkscape:connector-curvature="0"
         d="m 0,0 -12.473,0 0,3.969 c 0,2.494 -2.041,4.535 -4.535,4.535 l -71.93,0 c -2.494,0 -4.535,-2.041 -4.535,-4.535 l 0,-62.93 c 0,-2.494 2.041,-4.535 4.535,-4.535 l 71.93,0 c 2.494,0 4.535,2.041 4.535,4.535 l 0,33.448 12.473,0 c 2.494,0 4.535,2.041 4.535,4.536 l 0,16.441 C 4.535,-2.041 2.494,0 0,0 z"
         style="fill:none;stroke:#ff0000;stroke-width:0.1;stroke-linecap:butt;stroke-linejoin:miter;stroke-miterlimit:10;stroke-opacity:1;stroke-dasharray:none"
         id="path4981" />
    </g>
    <g
       id="g4983"
       transform="matrix(1.25,0,0,-1.25,367.29755,516.57852)">
      <path
         inkscape:connector-curvature="0"
         d="m 0,0 -12.473,0 0,3.969 c 0,2.494 -2.041,4.535 -4.535,4.535 l -71.93,0 c -2.494,0 -4.535,-2.041 -4.535,-4.535 l 0,-62.93 c 0,-2.494 2.041,-4.535 4.535,-4.535 l 71.93,0 c 2.494,0 4.535,2.041 4.535,4.535 l 0,33.448 12.473,0 c 2.494,0 4.535,2.041 4.535,4.536 l 0,16.441 C 4.535,-2.041 2.494,0 0,0 z"
         style="fill:none;stroke:#ff0000;stroke-width:0.1;stroke-linecap:butt;stroke-linejoin:miter;stroke-miterlimit:10;stroke-opacity:1;stroke-dasharray:none"
         id="path4985" />
    </g>
  </g>
</svg>
